<svg width="128" height="128" viewBox="0 0 128 128" fill="none" xmlns="http://www.w3.org/2000/svg" role="img" aria-label="GraphThrift logo">
  <rect width="128" height="128" rx="28" fill="#0B1220"/>
  <!-- feather: graphthrift = frugality; light, precise -->
  <path d="M92 30C63 34 44 47 37 72c-4 14-3 24-1 28 0 0 6-16 20-26 0 0-8 14-9 24l7-6c17-14 30-24 36-42 3-9 3-16 2-20z"
        fill="url(#g)"/>
  <path d="M52 74c10-8 21-15 33-20" stroke="#0B1220" stroke-width="3" stroke-linecap="round"/>
  <!-- spine -->
  <path d="M36 100L60 74" stroke="#34D399" stroke-width="5" stroke-linecap="round"/>
  <!-- downward cost arrow, subtle -->
  <path d="M96 84v16m0 0l-6-6m6 6l6-6" stroke="#34D399" stroke-width="4" stroke-linecap="round" stroke-linejoin="round"/>
  <defs>
    <linearGradient id="g" x1="37" y1="30" x2="92" y2="100" gradientUnits="userSpaceOnUse">
      <stop stop-color="#6EE7B7"/>
      <stop offset="1" stop-color="#10B981"/>
    </linearGradient>
  </defs>
</svg>
